<svg xmlns="http://www.w3.org/2000/svg" viewBox="0 0 509.4 65.1">
    <path class="logocolor"
          d="M200.5,264.4h17c15.6,0,24.7,9,24.7,21.7h0c0,12.7-9.2,22.1-25,22.1H200.5Zm17.1,33.1c7.3,0,12.1-4,12.1-11.1h0c0-7-4.8-11.1-12.1-11.1h-4.9v22.3Z"
          transform="translate(-115.7 -258.2)"/>
    <path class="logocolor"
          d="M262.2,304.1v4.2H250.3V262.5h11.9v16.4c2.3-2.8,5.2-5.3,10.2-5.3,8.1,0,15.1,6.7,15.1,17.6h0c0,11-7,17.7-15,17.7A12.6,12.6,0,0,1,262.2,304.1Zm13.6-12.8h0c0-4.4-3.1-7.6-7-7.6s-6.9,3.2-6.9,7.6h0c0,4.6,3.1,7.7,6.9,7.7S275.8,295.9,275.8,291.3Z"
          transform="translate(-115.7 -258.2)"/>
    <path class="logocolor" d="M292.3,264.4h13.6l9.9,27.8,10-27.8h13.3l-17.8,44.2H310.1Z" transform="translate(-115.7 -258.2)"/>
    <path class="logocolor" d="M344.5,262.5h12.4v8.8H344.5Zm.3,11.9h11.9v33.9H344.8Z" transform="translate(-115.7 -258.2)"/>
    <path class="logocolor"
          d="M363.2,304l4.5-7.2a21.7,21.7,0,0,0,11.6,3.9c2.1,0,3-.6,3-1.8v-.2c0-1.3-1.8-1.8-5.4-2.8-6.7-1.8-12-4.1-12-10.9h0c0-7.2,5.7-11.2,13.6-11.2a26.4,26.4,0,0,1,13.9,3.9l-4,7.5c-3.5-1.9-7.4-3.1-10.1-3.1s-2.7.7-2.7,1.6v.2c0,1.3,1.9,1.9,5.5,3,6.7,1.9,12,4.2,12,10.7v.2c0,7.4-5.6,11.3-13.8,11.3A27.4,27.4,0,0,1,363.2,304Z"
          transform="translate(-115.7 -258.2)"/>
    <path class="logocolor"
          d="M400.3,296.5V274.4h11.9v18.3c0,3.7,1.9,5.7,4.8,5.7s4.9-2,4.9-5.7V274.4h11.9v33.9H421.9v-4.7c-2.2,2.8-5.3,5.4-10.1,5.4C404.6,309,400.3,304.2,400.3,296.5Z"
          transform="translate(-115.7 -258.2)"/>
    <path class="logocolor"
          d="M441,298.5h0c0-7,5.4-10.6,13.3-10.6a25.4,25.4,0,0,1,8.1,1.3v-.6c0-3.5-2.1-5.5-6.7-5.5a23.4,23.4,0,0,0-9.3,1.9l-2.5-8.4a33.4,33.4,0,0,1,13.7-2.6c6.1,0,10.2,1.4,12.9,4.1s3.7,6,3.7,10.8v19.5H462.4v-3.6a12.7,12.7,0,0,1-10,4.3C446,309,441,305.3,441,298.5Zm21.6-2.5v-1.6a12.7,12.7,0,0,0-4.7-.9c-3.4,0-5.4,1.7-5.4,4.2v.2c0,2.3,1.7,3.7,4.2,3.7S462.6,299.4,462.6,296Z"
          transform="translate(-115.7 -258.2)"/>
    <path class="logocolor" d="M482.9,262.5h11.9v45.8H482.9Z" transform="translate(-115.7 -258.2)"/>
    <path class="logocolor" d="M504,262.5h12.4v8.8H504Zm.2,11.9h11.9v33.9H504.2Z" transform="translate(-115.7 -258.2)"/>
    <path class="logocolor" d="M524.1,300.4l15.6-16.6H524.6v-9.4h30.9v7.8l-15.7,16.6h15.7v9.5H524.1Z"
          transform="translate(-115.7 -258.2)"/>
    <path class="logocolor"
          d="M560.7,291.5v-.2c0-9.8,7.1-17.7,17.1-17.7,11.7,0,17.1,8.6,17.1,18.6a20.1,20.1,0,0,1-.1,2.4H572.2c.9,3.7,3.6,5.6,7.3,5.6s5.1-1.1,7.5-3.5l6.6,5.5a18,18,0,0,1-14.7,6.9C568.2,309.1,560.7,302,560.7,291.5Zm23.1-3c-.5-3.7-2.7-6.1-5.9-6.1s-5.3,2.4-5.9,6.1Z"
          transform="translate(-115.7 -258.2)"/>
    <path class="logocolor" d="M602.5,274.4h11.9v6.8c1.9-4.6,5.1-7.6,10.7-7.4v12.5h-1c-6.2,0-9.7,3.6-9.7,11.4v10.6H602.5Z"
          transform="translate(-115.7 -258.2)"/>
    <path class="logocolor" d="M142.5,269c14.8,0,26.8-2.4,26.8-5.4s-12-5.4-26.8-5.4-26.8,2.4-26.8,5.4,12,5.4,26.8,5.4"
          transform="translate(-115.7 -258.2)"/>
    <path class="logocolor" d="M169.3,279.5c0,3-12,5.4-26.8,5.4s-26.8-2.4-26.8-5.4v-4.8c0,2.9,12,5.3,26.8,5.3s26.8-2.4,26.8-5.3Z"
          transform="translate(-115.7 -258.2)"/>
    <path class="logocolor" d="M145.4,300.7h-2.9c-14.8,0-26.8-2.4-26.8-5.3v-4.9c0,3,12,5.4,26.8,5.4h4s-.5,1.3-.8,2.4S145.4,300.7,145.4,300.7Z"
          transform="translate(-115.7 -258.2)"/>
    <path class="logocolor" d="M152,316.3c-3,.2-6.2.3-9.5.3-14.8,0-26.8-2.4-26.8-5.3v-4.9c0,3,12,5.4,26.8,5.4H148a13.6,13.6,0,0,0,1.6,2.3A17,17,0,0,0,152,316.3Z"
          transform="translate(-115.7 -258.2)"/>
    <path class="logocolor"
          d="M170.9,314.9a14.7,14.7,0,1,1,7.2-12.6,14.2,14.2,0,0,1-2.3,7.8l8.3,8.3-4.9,4.9ZM163.4,294a8.3,8.3,0,1,0,8.2,8.3A8.3,8.3,0,0,0,163.4,294Z"
          transform="translate(-115.7 -258.2)"/>
</svg>